<?xml version="1.0" encoding="UTF-8" standalone="no"?>
<svg
   xmlns:dc="http://purl.org/dc/elements/1.1/"
   xmlns:cc="http://creativecommons.org/ns#"
   xmlns:rdf="http://www.w3.org/1999/02/22-rdf-syntax-ns#"
   xmlns:svg="http://www.w3.org/2000/svg"
   xmlns="http://www.w3.org/2000/svg"
   xmlns:sodipodi="http://sodipodi.sourceforge.net/DTD/sodipodi-0.dtd"
   xmlns:inkscape="http://www.inkscape.org/namespaces/inkscape"
   width="16"
   height="16"
   version="1.1"
   id="svg4"
   sodipodi:docname="about-server.svg"
   inkscape:version="1.0.1 (3bc2e813f5, 2020-09-07)">
  <metadata
     id="metadata10">
    <rdf:RDF>
      <cc:Work
         rdf:about="">
        <dc:format>image/svg+xml</dc:format>
        <dc:type
           rdf:resource="http://purl.org/dc/dcmitype/StillImage" />
      </cc:Work>
    </rdf:RDF>
  </metadata>
  <defs
     id="defs8" />
  <sodipodi:namedview
     pagecolor="#ffffff"
     bordercolor="#666666"
     borderopacity="1"
     objecttolerance="10"
     gridtolerance="10"
     guidetolerance="10"
     inkscape:pageopacity="0"
     inkscape:pageshadow="2"
     inkscape:window-width="1366"
     inkscape:window-height="746"
     id="namedview6"
     showgrid="false"
     inkscape:zoom="36.5625"
     inkscape:cx="8"
     inkscape:cy="8"
     inkscape:window-x="0"
     inkscape:window-y="22"
     inkscape:window-maximized="1"
     inkscape:current-layer="svg4" />
  <path
     style="fill:#81a1cf;fill-opacity:1"
     d="M 2,0 C 1.446,0 1,0.446 1,1 V 4 H 15 V 1 C 15,0.446 14.554,0 14,0 Z M 8,1 H 9 V 3 H 8 Z M 10,1 H 11 V 3 H 10 Z M 12,1 H 13 V 3 H 12 Z M 1,5 V 9 H 15 V 5 Z M 8,6 H 9 V 8 H 8 Z M 10,6 H 11 V 8 H 10 Z M 12,6 H 13 V 8 H 12 Z M 1,10 V 13 C 1,13.554 1.446,14 2,14 H 7 V 16 H 9 V 14 H 14 C 14.554,14 15,13.554 15,13 V 10 Z M 8,11 H 9 V 13 H 8 Z M 10,11 H 11 V 13 H 10 Z M 12,11 H 13 V 13 H 12 Z"
     id="path2" />
</svg>
